<svg width="24" height="24" fill="none" xmlns="http://www.w3.org/2000/svg"><g clip-path="url(#clip0)"><path fill-rule="evenodd" clip-rule="evenodd" d="M10.737 19.074c1.32 0 2.45 1.088 2.45 2.495 0 1.343-1.13 2.431-2.45 2.431-1.319 0-2.45-1.088-2.45-2.431 0-1.407 1.131-2.495 2.45-2.495zm7.6 0c1.32 0 2.45 1.088 2.45 2.495 0 1.343-1.13 2.431-2.45 2.431-1.319 0-2.45-1.088-2.45-2.431 0-1.407 1.131-2.495 2.45-2.495zm-7.6 1.28c-.69 0-1.193.511-1.193 1.215 0 .64.502 1.152 1.193 1.152.628 0 1.194-.512 1.194-1.152 0-.704-.566-1.216-1.194-1.216v.001zm7.6 0c-.628 0-1.193.511-1.193 1.215 0 .64.565 1.152 1.193 1.152.628 0 1.194-.512 1.194-1.152 0-.704-.566-1.216-1.194-1.216v.001zM.687.008l4.209.96c.251.064.377.192.44.448L6.34 6.279h17.148c.314 0 .565.32.502.704l-2.324 8.444c-.063.256-.25.384-.502.384H8.288l.25 1.408h12.437c.691 0 .691 1.28 0 1.28H7.974a.606.606 0 01-.566-.449L4.205 2.12.436 1.29C-.317 1.097-.004-.12.687.009V.008zm21.86 7.55H6.591l1.382 6.973H20.66l1.885-6.974.001.001z" fill="#fff"/></g><defs><clipPath id="clip0"><path fill="#fff" d="M0 0h24v24H0z"/></clipPath></defs></svg>