<svg width="44" height="44" fill="none" xmlns="http://www.w3.org/2000/svg"><path fill-rule="evenodd" clip-rule="evenodd" d="M22 0c12.15 0 22 9.85 22 22s-9.85 22-22 22S0 34.15 0 22 9.85 0 22 0zm0 1C10.402 1 1 10.402 1 22s9.402 21 21 21 21-9.402 21-21S33.598 1 22 1zm1.096 10c2.01.004 2.428.02 3.44.066 1.17.054 1.97.24 2.67.512a5.39 5.39 0 011.948 1.268c.56.55.992 1.215 1.268 1.949.272.7.458 1.499.512 2.67.053 1.173.066 1.548.066 4.535s-.013 3.362-.066 4.535c-.054 1.171-.24 1.97-.512 2.67a5.391 5.391 0 01-1.268 1.949c-.55.56-1.215.993-1.949 1.269-.7.271-1.499.457-2.67.51-1.173.054-1.548.067-4.535.067s-3.362-.013-4.535-.066c-1.171-.054-1.97-.24-2.67-.511a5.392 5.392 0 01-1.949-1.27 5.392 5.392 0 01-1.269-1.948c-.271-.7-.457-1.499-.51-2.67-.047-1.011-.063-1.429-.066-3.439v-2.192c.003-2.01.019-2.428.065-3.44.054-1.17.24-1.97.511-2.67a5.391 5.391 0 011.27-1.948 5.39 5.39 0 011.948-1.268c.7-.272 1.499-.458 2.67-.512 1.011-.046 1.429-.062 3.439-.065h2.192V11zm-.02 1.983h-2.153c-1.972.003-2.368.017-3.368.063-1.072.05-1.655.228-2.042.379-.514.2-.88.438-1.265.823a3.408 3.408 0 00-.823 1.265c-.15.387-.33.97-.379 2.042-.053 1.16-.064 1.508-.064 4.445 0 2.937.011 3.285.064 4.445.049 1.072.228 1.655.379 2.043.2.513.438.88.823 1.264.385.385.751.624 1.265.823.387.15.97.33 2.042.379 1.16.053 1.508.064 4.445.064 2.937 0 3.285-.011 4.445-.064 1.072-.049 1.655-.228 2.042-.379.514-.2.88-.438 1.265-.823.385-.385.624-.751.823-1.264.15-.388.33-.97.379-2.043.046-1 .06-1.396.063-3.368v-2.153c-.003-1.973-.017-2.369-.063-3.369-.05-1.072-.228-1.655-.379-2.042a3.41 3.41 0 00-.823-1.265 3.409 3.409 0 00-1.265-.823c-.387-.15-.97-.33-2.042-.379-1-.046-1.396-.06-3.369-.063zm-1.054 3.386a5.653 5.653 0 110 11.307 5.653 5.653 0 010-11.307zm0 1.983a3.67 3.67 0 100 7.34 3.67 3.67 0 000-7.34zm5.827-3.554a1.311 1.311 0 110 2.619 1.31 1.31 0 010-2.62v.001z" fill="#fff"/></svg>