<svg width="134" height="31" fill="none" xmlns="http://www.w3.org/2000/svg"><g clip-path="url(#clip0)"><path d="M79.092 9.204c-.444-.42-1.377-1.11-2.132-1.364a7.498 7.498 0 00-4.454-.18 6.411 6.411 0 00-1.702.72 8.131 8.131 0 00-2.798 2.848 7.968 7.968 0 00-1.065 4.107 8.164 8.164 0 00.784 3.598 8.09 8.09 0 002.146 2.683c.296.24.607.45.903.645a7.542 7.542 0 003.774 1.004c1.702 0 3.182-.525 4.41-1.544l.045-.03v.72c.013.738-.046 1.476-.178 2.203l-.014.045c0 .03-.015.06-.015.09a4.908 4.908 0 01-.607 1.529c-.725 1.14-1.924 1.709-3.582 1.709h-.089a7.064 7.064 0 01-1.169-.105 3.596 3.596 0 01-.829-.27 4.473 4.473 0 01-1.465-1.05 5.26 5.26 0 01-.962-1.573 3.409 3.409 0 01-.118-.36l-.015-.03h-3.212l.015.06c.097.54.25 1.068.459 1.574.137.335.295.66.474.974a7.368 7.368 0 001.154 1.53 7.534 7.534 0 002.457 1.663.956.956 0 00.192.075l.045.015c.91.34 1.872.512 2.841.51h.326c1.48 0 2.797-.33 3.907-.99a6.846 6.846 0 002.59-2.773c.25-.521.444-1.07.577-1.633.03-.15.074-.3.104-.45a15.94 15.94 0 00.222-2.893V7.735h-3.02v1.47zm-.09 8.934a5.026 5.026 0 01-1.834 1.56 4.775 4.775 0 01-2.22.554 4.723 4.723 0 01-1.969-.405 4.981 4.981 0 01-1.376-.9l-.06-.06a.854.854 0 01-.118-.104 4.73 4.73 0 01-1.273-2.399 5.355 5.355 0 01-.118-1.079 5.261 5.261 0 01.34-1.874 4.883 4.883 0 01.962-1.574 4.609 4.609 0 013.448-1.484 5.083 5.083 0 012.443.6c.681.38 1.28.895 1.761 1.514v5.651h.015zM9.25.315L0 22.935h3.404l2.324-5.786h9.294l2.353 5.786h3.42L11.544.315H9.25zM7.045 13.986l3.345-8.17 3.345 8.17h-6.69zm25.767 7.375l.636 1.574h2.383V7.72h-3.123v10.418a7.203 7.203 0 01-1.687 1.44c-.732.46-1.58.7-2.442.689a3.87 3.87 0 01-1.598-.345 3.633 3.633 0 01-1.258-.944 3.432 3.432 0 01-.622-1.155 6.07 6.07 0 01-.222-1.828v-8.26h-3.123V15.5c0 1.29.119 2.338.34 3.133a5.765 5.765 0 001.037 2.069 6.494 6.494 0 002.323 1.873 6.811 6.811 0 003.02.675c.498.001.995-.06 1.48-.18a6.533 6.533 0 001.257-.435c.918-.45 1.48-1.079 1.599-1.274zm14.504-13.97c-1.11 0-2.057.224-2.812.644a5.471 5.471 0 00-1.613 1.304V7.705h-3.02V22.92h3.123V12.877a5.174 5.174 0 011.717-1.784 4.083 4.083 0 012.264-.72c.308 0 .615.025.918.075V7.39h-.577zM61.08 9.203c-.548-.51-1.376-1.11-2.131-1.364a7.498 7.498 0 00-4.455-.18 6.411 6.411 0 00-1.702.72 8.131 8.131 0 00-2.797 2.848 7.968 7.968 0 00-1.066 4.107 7.971 7.971 0 001.05 4.092 7.926 7.926 0 002.783 2.834 7.542 7.542 0 003.774 1.004 7.08 7.08 0 002.531-.435 5.136 5.136 0 002.028-1.454l.636 1.574h2.383V7.72h-3.02l-.014 1.484zm-.104 8.934a5.11 5.11 0 01-1.835 1.56 4.775 4.775 0 01-2.22.554 4.723 4.723 0 01-1.968-.405 5.228 5.228 0 01-1.554-1.064 4.73 4.73 0 01-1.022-1.56 5.06 5.06 0 01-.355-1.903 5.256 5.256 0 01.34-1.874 4.882 4.882 0 01.963-1.574 4.238 4.238 0 011.494-1.079 4.608 4.608 0 011.954-.405 5.08 5.08 0 012.442.6c.681.38 1.28.895 1.761 1.514v5.636zM85.648 0h3.123v22.935h-3.123V0zm45.126 7.72l-4.056 10.223-4.055-10.193v-.03h-2.175l-4.056 10.223-4.055-10.193-.015-.03h-3.211l6.097 15.215h2.176l4.144-10.523 4.144 10.493.015.03h2.175L134 7.72h-3.226z" fill="#000"/></g><defs><clipPath id="clip0"><path fill="#fff" d="M0 0h134v31H0z"/></clipPath></defs></svg>