<svg width="15" height="48" fill="none" xmlns="http://www.w3.org/2000/svg"><g clip-path="url(#clip0)"><path d="M7.5 16.447a7.463 7.463 0 00-4.167 1.273 7.542 7.542 0 00-2.762 3.39 7.602 7.602 0 00-.427 4.363 7.569 7.569 0 002.053 3.867 7.484 7.484 0 003.84 2.067 7.452 7.452 0 004.333-.43 7.513 7.513 0 003.366-2.782 7.59 7.59 0 00-.935-9.534A7.482 7.482 0 007.5 16.448zm0 12.285c-.93 0-1.838-.277-2.611-.797a4.726 4.726 0 01-1.731-2.124 4.764 4.764 0 011.019-5.158 4.67 4.67 0 015.122-1.026 4.708 4.708 0 012.109 1.743c.516.778.792 1.693.792 2.63a4.764 4.764 0 01-1.38 3.342 4.698 4.698 0 01-3.32 1.39zm0 4.163a7.463 7.463 0 00-4.167 1.273 7.54 7.54 0 00-2.762 3.39 7.601 7.601 0 00-.427 4.363 7.57 7.57 0 002.053 3.867 7.484 7.484 0 003.84 2.067 7.452 7.452 0 004.333-.43 7.511 7.511 0 003.366-2.781 7.59 7.59 0 00-.935-9.534A7.482 7.482 0 007.5 32.895zm0 12.285c-.93 0-1.838-.277-2.611-.797a4.726 4.726 0 01-1.731-2.124A4.764 4.764 0 014.177 37.1a4.67 4.67 0 015.122-1.026 4.707 4.707 0 012.109 1.743c.516.779.792 1.694.792 2.63a4.764 4.764 0 01-1.38 3.342 4.698 4.698 0 01-3.32 1.39zM7.5 0a7.463 7.463 0 00-4.167 1.273 7.541 7.541 0 00-2.762 3.39 7.601 7.601 0 00-.427 4.363 7.569 7.569 0 002.053 3.867 7.484 7.484 0 003.84 2.067 7.452 7.452 0 004.333-.43 7.512 7.512 0 003.366-2.782 7.59 7.59 0 00-.935-9.533A7.483 7.483 0 007.5 0zm0 12.285c-.93 0-1.838-.277-2.611-.797a4.726 4.726 0 01-1.731-2.124 4.764 4.764 0 011.019-5.158A4.67 4.67 0 019.299 3.18a4.707 4.707 0 012.109 1.743c.516.778.792 1.693.792 2.63a4.764 4.764 0 01-1.38 3.342 4.698 4.698 0 01-3.32 1.39z" fill="#000"/></g><defs><clipPath id="clip0"><path fill="#fff" d="M0 0h15v48H0z"/></clipPath></defs></svg>